<?xml version="1.0" encoding="UTF-8"?>
<svg width="20px" height="20px" viewBox="0 0 20 20" version="1.1" xmlns="http://www.w3.org/2000/svg" xmlns:xlink="http://www.w3.org/1999/xlink">
    <!-- Generator: Sketch 52.5 (67469) - http://www.bohemiancoding.com/sketch -->
    <title>ICON/20/返回</title>
    <desc>Created with Sketch.</desc>
    <g id="ICON/20/返回" stroke="none" stroke-width="1" fill="none" fill-rule="evenodd">
        <path d="M17.03125,9.2578125 L5.60351562,9.2578125 L12.4433594,3.3203125 C12.5527344,3.22460938 12.4863281,3.046875 12.3417969,3.046875 L10.6132812,3.046875 C10.5371094,3.046875 10.4648437,3.07421875 10.4082031,3.12304688 L3.02734375,9.52734375 C2.74023438,9.77734375 2.74023438,10.2226562 3.02734375,10.4707031 L10.4511719,16.9140625 C10.4804688,16.9394531 10.515625,16.953125 10.5527344,16.953125 L12.3398438,16.953125 C12.484375,16.953125 12.5507812,16.7734375 12.4414063,16.6796875 L5.60351562,10.7421875 L17.03125,10.7421875 C17.1171875,10.7421875 17.1875,10.671875 17.1875,10.5859375 L17.1875,9.4140625 C17.1875,9.328125 17.1171875,9.2578125 17.03125,9.2578125 Z" id="fill" fill="#0072D2" fill-rule="nonzero"></path>
    </g>
</svg>