<?xml version="1.0" encoding="UTF-8"?>
<svg width="20px" height="20px" viewBox="0 0 20 20" version="1.1" xmlns="http://www.w3.org/2000/svg" xmlns:xlink="http://www.w3.org/1999/xlink">
    <!-- Generator: Sketch 52.5 (67469) - http://www.bohemiancoding.com/sketch -->
    <title>ICON/状态/审批中</title>
    <desc>Created with Sketch.</desc>
    <g id="ICON/状态/审批中" stroke="none" stroke-width="1" fill="none" fill-rule="evenodd">
        <path d="M10,2 C14.4178571,2 18,5.58214286 18,10 C18,14.4178571 14.4178571,18 10,18 C5.58214286,18 2,14.4178571 2,10 C2,5.58214286 5.58214286,2 10,2 Z M6.88268156,10.5267832 C7.16089385,10.5267832 7.38547486,10.2990257 7.38547486,10.0168783 C7.38547486,9.7347309 7.16089385,9.50697336 6.88268156,9.50697336 L4.5027933,9.50697336 C4.22458101,9.50697336 4,9.7347309 4,10.0168783 C4,10.2990257 4.22458101,10.5267832 4.5027933,10.5267832 L6.88268156,10.5267832 Z M15.4972067,10.5267832 C15.775419,10.5267832 16,10.2990257 16,10.0168783 C16,9.7347309 15.775419,9.50697336 15.4972067,9.50697336 L13.1173184,9.50697336 C12.8391061,9.50697336 12.6145251,9.7347309 12.6145251,10.0168783 C12.6145251,10.2990257 12.8391061,10.5267832 13.1173184,10.5267832 L15.4972067,10.5267832 Z M10.0837989,15.9997629 C10.3620112,15.9997629 10.5865922,15.7720054 10.5865922,15.489858 L10.5865922,13.2462763 C10.5865922,12.9641289 10.3620112,12.7363713 10.0837989,12.7363713 C9.80558659,12.7363713 9.58100559,12.9641289 9.58100559,13.2462763 L9.58100559,15.489858 C9.58100559,15.7720054 9.80558659,15.9997629 10.0837989,15.9997629 Z M10.0837989,7.43335994 C10.3620112,7.43335994 10.5865922,7.2056024 10.5865922,6.923455 L10.5865922,4.50990494 C10.5865922,4.22775754 10.3620112,4 10.0837989,4 C9.80558659,4 9.58100559,4.22775754 9.58100559,4.50990494 L9.58100559,6.923455 C9.58100559,7.2056024 9.80558659,7.43335994 10.0837989,7.43335994 Z M6.14189944,14.3867636 C6.27094972,14.3867636 6.4,14.3374728 6.4972067,14.2371915 L8.17988827,12.5307097 C8.37597765,12.3318467 8.37597765,12.0089069 8.17988827,11.810044 C7.98379888,11.6111811 7.66536313,11.6111811 7.46927374,11.810044 L5.78659218,13.5165259 C5.59050279,13.7153888 5.59050279,14.0383286 5.78659218,14.2371915 C5.88379888,14.3374728 6.01284916,14.3867636 6.14189944,14.3867636 Z M12.2340782,8.21011513 C12.3614525,8.21011513 12.4905028,8.15912464 12.5893855,8.06054301 L14.272067,6.35406114 C14.4681564,6.15519822 14.4681564,5.83225842 14.272067,5.63339549 C14.0759777,5.43453257 13.7575419,5.43453257 13.5614525,5.63339549 L11.8787709,7.33987736 C11.6826816,7.53874029 11.6826816,7.86168009 11.8787709,8.06054301 C11.9759777,8.16082432 12.1050279,8.21011513 12.2340782,8.21011513 Z M13.9050279,14.2541884 C14.0324022,14.2541884 14.1614525,14.2048976 14.2603352,14.1046162 C14.4564246,13.9057533 14.4564246,13.5828135 14.2603352,13.3839506 L12.696648,11.7981462 C12.5005587,11.5992833 12.1821229,11.5992833 11.9860335,11.7981462 C11.7899441,11.9970092 11.7899441,12.319949 11.9860335,12.5188119 L13.5497207,14.1046162 C13.6469274,14.2048976 13.7759777,14.2541884 13.9050279,14.2541884 Z M7.93184358,8.19821735 C8.06089385,8.19821735 8.18826816,8.14722685 8.28715084,8.04864523 C8.48324022,7.8497823 8.48324022,7.52684251 8.28715084,7.32797958 L6.60446927,5.62149771 C6.40837989,5.42263479 6.08994413,5.42263479 5.89385475,5.62149771 C5.69776536,5.82036064 5.69776536,6.14330044 5.89385475,6.34216336 L7.57653631,8.04864523 C7.67374302,8.14892654 7.8027933,8.19821735 7.93184358,8.19821735 Z" id="fill" fill="#FAAD14" fill-rule="nonzero"></path>
    </g>
</svg>