<?xml version="1.0" encoding="UTF-8"?>
<svg width="20px" height="20px" viewBox="0 0 20 20" version="1.1" xmlns="http://www.w3.org/2000/svg" xmlns:xlink="http://www.w3.org/1999/xlink">
    <!-- Generator: Sketch 52.2 (67145) - http://www.bohemiancoding.com/sketch -->
    <title>ICON/状态/审批完成</title>
    <desc>Created with Sketch.</desc>
    <g id="ICON/状态/审批完成" stroke="none" stroke-width="1" fill="none" fill-rule="evenodd">
        <path d="M10,2 C14.4178571,2 18,5.58214286 18,10 C18,14.4178571 14.4178571,18 10,18 C5.58214286,18 2,14.4178571 2,10 C2,5.58214286 5.58214286,2 10,2 Z M8.7834468,8.58415973 L8.04905757,10.1402432 L6.85685596,10.1402432 C6.38469263,10.1402432 6,10.5249358 6,10.9970992 L6,11.143144 C6,11.6153074 6.38469263,12 6.85685596,12 L13.143144,12 C13.6153074,12 14,11.6161999 14,11.1440366 L14,10.9970992 C14,10.5249358 13.6153074,10.1402432 13.143144,10.1402432 L11.9606359,10.1402432 L11.2259001,8.58269131 C11.4248489,8.42805087 11.5939154,8.23633214 11.7221912,8.0177396 C11.9033806,7.71069954 11.9988843,7.35903157 11.9988843,7.0011157 C11.9988843,6.46647328 11.7918108,5.96396296 11.4151512,5.5864108 C11.037599,5.20796608 10.5377664,5 10.0040165,5 C9.47026665,5 8.96954145,5.20796608 8.59288185,5.5864108 C8.21622225,5.96485552 8.00914872,6.46647328 8.00914872,7.0011157 C8.00914872,7.35992413 8.10465246,7.71069954 8.28494924,8.0177396 C8.41432626,8.23643273 8.58381057,8.42903197 8.7834468,8.58415973 Z M6.5,13 C6.22385763,13 6,13.2238576 6,13.5 C6,13.7761424 6.22385763,14 6.5,14 L13.5,14 C13.7761424,14 14,13.7761424 14,13.5 C14,13.2238576 13.7761424,13 13.5,13 L6.5,13 Z" id="fill" fill="#29C89B" fill-rule="nonzero"></path>
    </g>
</svg>