<?xml version="1.0" encoding="UTF-8"?>
<svg width="20px" height="20px" viewBox="0 0 20 20" version="1.1" xmlns="http://www.w3.org/2000/svg" xmlns:xlink="http://www.w3.org/1999/xlink">
    <!-- Generator: Sketch 52.2 (67145) - http://www.bohemiancoding.com/sketch -->
    <title>ICON/状态/登记办理</title>
    <desc>Created with Sketch.</desc>
    <g id="ICON/状态/登记办理" stroke="none" stroke-width="1" fill="none" fill-rule="evenodd">
        <path d="M8.87005769,13 L9.53553391,12.7781746 L14.131728,8.18198052 C14.7175144,7.59619408 14.7175144,6.64644661 14.131728,6.06066017 C13.5459415,5.47487373 12.5961941,5.47487373 12.0104076,6.06066017 L7.41421356,10.6568542 L6.86522066,12.3038329 C6.78645837,12.5401198 6.82169887,12.7960927 6.9540039,13 L5.5,13 C5.22385763,13 5,13.2238576 5,13.5 C5,13.7761424 5.22385763,14 5.5,14 L13.5,14 C13.7761424,14 14,13.7761424 14,13.5 C14,13.2238576 13.7761424,13 13.5,13 L8.87005769,13 Z M10,2 C14.4178571,2 18,5.58214286 18,10 C18,14.4178571 14.4178571,18 10,18 C5.58214286,18 2,14.4178571 2,10 C2,5.58214286 5.58214286,2 10,2 Z M13.4246212,6.76776695 C13.6198833,6.9630291 13.6198833,7.27961159 13.4246212,7.47487373 L8.82842712,12.0710678 L8.12132034,11.363961 L12.7175144,6.76776695 C12.9127766,6.57250481 13.2293591,6.57250481 13.4246212,6.76776695 Z" id="fill" fill="#FAAD14" fill-rule="nonzero"></path>
    </g>
</svg>