<?xml version="1.0" encoding="UTF-8"?>
<svg width="20px" height="20px" viewBox="0 0 20 20" version="1.1" xmlns="http://www.w3.org/2000/svg" xmlns:xlink="http://www.w3.org/1999/xlink">
    <!-- Generator: Sketch 52.5 (67469) - http://www.bohemiancoding.com/sketch -->
    <title>ICON/20/删除</title>
    <desc>Created with Sketch.</desc>
    <g id="ICON/20/删除" stroke="none" stroke-width="1" fill="none" fill-rule="evenodd">
        <path d="M7.03125,3.59375 L12.96875,3.59375 L12.96875,5 L14.375,5 L14.375,3.4375 C14.375,2.74804688 13.8144531,2.1875 13.125,2.1875 L6.875,2.1875 C6.18554688,2.1875 5.625,2.74804688 5.625,3.4375 L5.625,5 L7.03125,5 L7.03125,3.59375 Z M16.875,5 L3.125,5 C2.77929688,5 2.5,5.27929688 2.5,5.625 L2.5,6.25 C2.5,6.3359375 2.5703125,6.40625 2.65625,6.40625 L3.8359375,6.40625 L4.31835938,16.6210938 C4.34960938,17.2871094 4.90039062,17.8125 5.56640625,17.8125 L14.4335938,17.8125 C15.1015625,17.8125 15.6503906,17.2890625 15.6816406,16.6210938 L16.1640625,6.40625 L17.34375,6.40625 C17.4296875,6.40625 17.5,6.3359375 17.5,6.25 L17.5,5.625 C17.5,5.27929688 17.2207031,5 16.875,5 Z M14.2832031,16.40625 L5.71679688,16.40625 L5.24414062,6.40625 L14.7558594,6.40625 L14.2832031,16.40625 Z" id="fill" fill="#6F7479" fill-rule="nonzero"></path>
    </g>
</svg>