<?xml version="1.0" encoding="UTF-8"?>
<svg width="20px" height="20px" viewBox="0 0 20 20" version="1.1" xmlns="http://www.w3.org/2000/svg" xmlns:xlink="http://www.w3.org/1999/xlink">
    <!-- Generator: Sketch 52.5 (67469) - http://www.bohemiancoding.com/sketch -->
    <title>ICON/20/编辑</title>
    <desc>Created with Sketch.</desc>
    <g id="ICON/20/编辑" stroke="none" stroke-width="1" fill="none" fill-rule="evenodd">
        <path d="M17.65625,10 C17.7421875,10 17.8125,10.0703125 17.8125,10.15625 L17.8125,17.1875 C17.8125,17.5332031 17.5332031,17.8125 17.1875,17.8125 L2.8125,17.8125 C2.46679688,17.8125 2.1875,17.5332031 2.1875,17.1875 L2.1875,2.8125 C2.1875,2.46679688 2.46679688,2.1875 2.8125,2.1875 L9.84375,2.1875 C9.9296875,2.1875 10,2.2578125 10,2.34375 L10,3.4375 C10,3.5234375 9.9296875,3.59375 9.84375,3.59375 L3.59375,3.59375 L3.59375,16.40625 L16.40625,16.40625 L16.40625,10.15625 C16.40625,10.0703125 16.4765625,10 16.5625,10 L17.65625,10 Z M6.95117187,10.4472656 C6.95117187,10.40625 6.96875,10.3671875 6.99609375,10.3378906 L15.1171875,2.23242188 C15.1484375,2.203125 15.1875,2.1875 15.2285156,2.1875 C15.2695312,2.1875 15.3085937,2.20117188 15.3398437,2.23242188 L17.7675781,4.65820313 C17.828125,4.71875 17.828125,4.81835938 17.7675781,4.87890625 L9.64453125,12.984375 C9.6171875,13.0117188 9.578125,13.0273438 9.5390625,13.0292969 L7.234375,13.0859375 L7.2265625,13.0859375 C7.05273437,13.0859375 6.91210937,12.9433594 6.9140625,12.7695312 L6.95117187,10.4472656 Z M8.19140625,10.9082031 L8.17773437,11.8144531 L9.0703125,11.7929688 L16.1113281,4.76757812 L15.2285156,3.88671875 L8.19140625,10.9082031 Z" id="fill" fill="#0072D2" fill-rule="nonzero"></path>
    </g>
</svg>