<?xml version="1.0" encoding="UTF-8"?>
<svg width="20px" height="20px" viewBox="0 0 20 20" version="1.1" xmlns="http://www.w3.org/2000/svg" xmlns:xlink="http://www.w3.org/1999/xlink">
    <!-- Generator: Sketch 52.2 (67145) - http://www.bohemiancoding.com/sketch -->
    <title>ICON/20/mobile</title>
    <desc>Created with Sketch.</desc>
    <g id="ICON/20/mobile" stroke="none" stroke-width="1" fill="none" fill-rule="evenodd">
        <path d="M14.53125,1.2109375 L5.46875,1.2109375 C4.77929688,1.2109375 4.21875,1.77148438 4.21875,2.4609375 L4.21875,17.4609375 C4.21875,18.1503906 4.77929688,18.7109375 5.46875,18.7109375 L14.53125,18.7109375 C15.2207031,18.7109375 15.78125,18.1503906 15.78125,17.4609375 L15.78125,2.4609375 C15.78125,1.77148438 15.2207031,1.2109375 14.53125,1.2109375 Z M14.375,17.3046875 L5.625,17.3046875 L5.625,2.6171875 L14.375,2.6171875 L14.375,17.3046875 Z M9.21875,15.3125 C9.21875,15.7439725 9.56852754,16.09375 10,16.09375 C10.4314725,16.09375 10.78125,15.7439725 10.78125,15.3125 C10.78125,14.8810275 10.4314725,14.53125 10,14.53125 C9.56852754,14.53125 9.21875,14.8810275 9.21875,15.3125 Z" id="fill" fill="#6F7479" fill-rule="nonzero"></path>
    </g>
</svg>