<?xml version="1.0" encoding="UTF-8"?>
<svg width="30px" height="30px" viewBox="0 0 30 30" version="1.1" xmlns="http://www.w3.org/2000/svg" xmlns:xlink="http://www.w3.org/1999/xlink">
    <!-- Generator: Sketch 52.5 (67469) - http://www.bohemiancoding.com/sketch -->
    <title>ICON/30/PDF</title>
    <desc>Created with Sketch.</desc>
    <g id="ICON/30/PDF" stroke="none" stroke-width="1" fill="none" fill-rule="evenodd">
        <path d="M26.7879195,0.028424581 C28.5591946,0.028424581 30.0024161,1.46601117 29.9986577,3.23557542 L29.9986577,26.7628156 C29.9986577,28.5321117 28.5591946,29.9699665 26.7879195,29.9699665 L7.51543624,29.9699665 C5.74416107,29.9699665 4.30469799,28.5323799 4.30469799,26.7625475 L4.30469799,23.5553966 L2.1642953,23.5553966 C0.983087248,23.5553966 0.0236241611,22.5970056 0.0236241611,21.4176536 L0.0236241611,8.58100559 C0.0236241611,7.40111732 0.983087248,6.44272626 2.1642953,6.44272626 L4.30469799,6.44272626 L4.30469799,3.23557542 C4.30469799,1.46601117 5.74416107,0.028424581 7.51543624,0.028424581 L26.7879195,0.028424581 Z M27.8577181,26.7663017 L27.8579866,26.7663017 L27.8579866,3.24683799 C27.8575426,2.65665692 27.3787606,2.17828982 26.7879195,2.17769832 L7.51543624,2.17769832 C6.92459514,2.17828982 6.44581307,2.65665692 6.44536913,3.24683799 L6.44536913,6.45398883 L15.0110067,6.45398883 C16.1916779,6.45398883 17.1516779,7.41211173 17.1516779,8.592 L24.6469799,8.592 C25.2379258,8.59244366 25.7168713,9.070854 25.7173154,9.66113966 C25.7168713,10.2514253 25.2379258,10.7298357 24.6469799,10.7302793 L17.1516779,10.7302793 L17.1516779,12.8682905 L24.6469799,12.8682905 C25.2379258,12.8687342 25.7168713,13.3471445 25.7173154,13.9374302 C25.7168713,14.5277158 25.2379258,15.0061262 24.6469799,15.0065698 L17.1516779,15.0065698 L17.1516779,17.1448492 L24.6469799,17.1448492 C25.2378211,17.1452926 25.7167233,17.6235397 25.7173154,18.2137207 C25.7168713,18.8040063 25.2379258,19.2824167 24.6469799,19.2828603 L17.1514094,19.2828603 L17.1514094,21.4211397 C17.1514094,22.6007598 16.1919463,23.5591508 15.0110067,23.5591508 L6.44510067,23.5591508 L6.44510067,26.7663017 C6.44554462,27.3564827 6.92432669,27.8348498 7.51516779,27.8354413 L26.787651,27.8354413 C27.3784921,27.8348498 27.8572742,27.3564827 27.8577181,26.7663017 Z M7.29527978,16.3011835 L8.8914567,16.3011835 C9.4975443,16.3011835 10.0434776,16.2236887 10.529273,16.0686968 C11.0150684,15.913705 11.4268317,15.6939437 11.7645752,15.4094064 C12.1023186,15.1248691 12.3614056,14.7836607 12.5418439,14.3857712 C12.7222822,13.9878816 12.8125,13.5437325 12.8125,13.0533104 C12.8125,12.5582618 12.7222822,12.1013896 12.5418439,11.6826802 C12.3614056,11.2639709 12.1023186,10.9019431 11.7645752,10.596586 C11.4268317,10.2912288 11.0150684,10.0529613 10.529273,9.88177629 C10.0434776,9.71059124 9.4975443,9.625 8.8914567,9.625 L4.859375,9.625 L4.859375,19.7294939 L7.29527978,19.7294939 L7.29527978,16.3011835 Z M7.29527978,14.4204707 L7.29527978,11.5057128 L8.8914567,11.5057128 C9.14592096,11.5057128 9.36452561,11.5485084 9.54727721,11.6341009 C9.73002882,11.7196935 9.88039181,11.8342007 9.99837069,11.977626 C10.1163496,12.1210513 10.2030975,12.2864506 10.2586169,12.4738288 C10.3141364,12.661207 10.3418957,12.8589922 10.3418957,13.0671902 C10.3418957,13.2615084 10.3141364,13.441944 10.2586169,13.6085024 C10.2030975,13.7750608 10.1163496,13.918484 9.99837069,14.0387762 C9.88039181,14.1590684 9.73002882,14.2527561 9.54727721,14.3198421 C9.36452561,14.3869281 9.14592096,14.4204707 8.8914567,14.4204707 L7.29527978,14.4204707 Z" id="Shape" fill="#0072D2" fill-rule="nonzero"></path>
    </g>
</svg>