<?xml version="1.0" encoding="UTF-8"?>
<svg width="20px" height="20px" viewBox="0 0 20 20" version="1.1" xmlns="http://www.w3.org/2000/svg" xmlns:xlink="http://www.w3.org/1999/xlink">
    <!-- Generator: Sketch 52.5 (67469) - http://www.bohemiancoding.com/sketch -->
    <title>ICON/20/流程查询</title>
    <desc>Created with Sketch.</desc>
    <g id="ICON/20/流程查询" stroke="none" stroke-width="1" fill="none" fill-rule="evenodd">
        <path d="M13.4375,6.09375 L13.4375,5.15625 C13.4375,5.0703125 13.3671875,5 13.28125,5 L5.78125,5 C5.6953125,5 5.625,5.0703125 5.625,5.15625 L5.625,6.09375 C5.625,6.1796875 5.6953125,6.25 5.78125,6.25 L13.28125,6.25 C13.3671875,6.25 13.4375,6.1796875 13.4375,6.09375 Z M5.78125,7.8125 C5.6953125,7.8125 5.625,7.8828125 5.625,7.96875 L5.625,8.90625 C5.625,8.9921875 5.6953125,9.0625 5.78125,9.0625 L9.375,9.0625 C9.4609375,9.0625 9.53125,8.9921875 9.53125,8.90625 L9.53125,7.96875 C9.53125,7.8828125 9.4609375,7.8125 9.375,7.8125 L5.78125,7.8125 Z M8.59375,16.640625 L4.0625,16.640625 L4.0625,2.890625 L15,2.890625 L15,9.609375 C15,9.6953125 15.0703125,9.765625 15.15625,9.765625 L16.25,9.765625 C16.3359375,9.765625 16.40625,9.6953125 16.40625,9.609375 L16.40625,2.109375 C16.40625,1.76367188 16.1269531,1.484375 15.78125,1.484375 L3.28125,1.484375 C2.93554688,1.484375 2.65625,1.76367188 2.65625,2.109375 L2.65625,17.421875 C2.65625,17.7675781 2.93554688,18.046875 3.28125,18.046875 L8.59375,18.046875 C8.6796875,18.046875 8.75,17.9765625 8.75,17.890625 L8.75,16.796875 C8.75,16.7109375 8.6796875,16.640625 8.59375,16.640625 Z M17.2988281,17.6464844 L15.4765625,15.8242188 C15.9121094,15.2480469 16.171875,14.5292969 16.171875,13.75 C16.171875,11.8515625 14.6328125,10.3125 12.734375,10.3125 C10.8359375,10.3125 9.296875,11.8515625 9.296875,13.75 C9.296875,15.6484375 10.8359375,17.1875 12.734375,17.1875 C13.4335937,17.1875 14.0820312,16.9785156 14.625,16.6210938 L16.4746094,18.4707031 C16.5058594,18.5019531 16.5449219,18.515625 16.5839844,18.515625 C16.6230469,18.515625 16.6640625,18.5 16.6933594,18.4707031 L17.2988281,17.8652344 C17.359375,17.8046875 17.359375,17.7070312 17.2988281,17.6464844 Z M12.734375,15.9375 C11.5253906,15.9375 10.546875,14.9589844 10.546875,13.75 C10.546875,12.5410156 11.5253906,11.5625 12.734375,11.5625 C13.9433594,11.5625 14.921875,12.5410156 14.921875,13.75 C14.921875,14.9589844 13.9433594,15.9375 12.734375,15.9375 Z" id="fill" fill="#6F7479" fill-rule="nonzero"></path>
    </g>
</svg>