<?xml version="1.0" encoding="UTF-8"?>
<svg width="20px" height="20px" viewBox="0 0 20 20" version="1.1" xmlns="http://www.w3.org/2000/svg" xmlns:xlink="http://www.w3.org/1999/xlink">
    <!-- Generator: Sketch 52.5 (67469) - http://www.bohemiancoding.com/sketch -->
    <title>ICON/20/申请退回</title>
    <desc>Created with Sketch.</desc>
    <g id="ICON/20/申请退回" stroke="none" stroke-width="1" fill="none" fill-rule="evenodd">
        <path d="M15.5681818,17.25 L15.5681818,7.6953125 L11.2727273,7.6953125 C10.8113636,7.6953125 10.4375,7.328125 10.4375,6.875 L10.4375,2.65625 L4.43181818,2.65625 L4.43181818,6 L3,6 L3,1.875 C3,1.52929688 3.284375,1.25 3.63636364,1.25 L12.0840909,1.25 C12.253125,1.25 12.4142045,1.31640625 12.5335227,1.43359375 L16.8130682,5.63671875 C16.9323864,5.75390625 17,5.9140625 17,6.08007812 L17,18.125 C17,18.4707031 16.715625,18.75 16.3636364,18.75 L9,18.75 L3.73140008,18.75 C3.32745897,18.75 3,18.4142136 3,18 C3,17.5857864 3.32745897,17.25 3.73140008,17.25 L9.25,17.25 L9.25,14 C9.25,12.4142136 8.58578644,11.75 7,11.75 L4.56066017,11.75 L6.28033009,13.4696699 C6.5732233,13.7625631 6.5732233,14.2374369 6.28033009,14.5303301 C5.98743687,14.8232233 5.51256313,14.8232233 5.21966991,14.5303301 L2.21966991,11.5303301 C1.9267767,11.2374369 1.9267767,10.7625631 2.21966991,10.4696699 L5.21966991,7.46966991 C5.51256313,7.1767767 5.98743687,7.1767767 6.28033009,7.46966991 C6.5732233,7.76256313 6.5732233,8.23743687 6.28033009,8.53033009 L4.56066017,10.25 L7,10.25 C9.41421356,10.25 10.75,11.5857864 10.75,14 L10.75,17.25 L15.5681818,17.25 Z M15.5323864,6.3671875 L11.7897727,2.69140625 L11.7897727,6.3671875 L15.5323864,6.3671875 Z" id="fill" fill="#6F7479" fill-rule="nonzero"></path>
    </g>
</svg>