<?xml version="1.0" encoding="UTF-8"?>
<svg width="20px" height="20px" viewBox="0 0 20 20" version="1.1" xmlns="http://www.w3.org/2000/svg" xmlns:xlink="http://www.w3.org/1999/xlink">
    <!-- Generator: Sketch 52.2 (67145) - http://www.bohemiancoding.com/sketch -->
    <title>ICON/20/time</title>
    <desc>Created with Sketch.</desc>
    <g id="ICON/20/time" stroke="none" stroke-width="1" fill="none" fill-rule="evenodd">
        <path d="M10,1.25 C14.8320312,1.25 18.75,5.16796875 18.75,10 C18.75,14.8320312 14.8320312,18.75 10,18.75 C5.16796875,18.75 1.25,14.8320312 1.25,10 C1.25,5.16796875 5.16796875,1.25 10,1.25 Z M10,17.265625 C14.0117187,17.265625 17.265625,14.0117187 17.265625,10 C17.265625,5.98828125 14.0117187,2.734375 10,2.734375 C5.98828125,2.734375 2.734375,5.98828125 2.734375,10 C2.734375,14.0117187 5.98828125,17.265625 10,17.265625 Z M13.4121094,12.4726563 C13.4824219,12.5214844 13.4980469,12.6191406 13.4472656,12.6914063 L12.8886719,13.453125 C12.8378906,13.5214844 12.7402344,13.5371094 12.6699219,13.4863281 L9.43945312,11.1308594 C9.3984375,11.1015625 9.375,11.0546875 9.375,11.0039063 L9.375,5.625 C9.375,5.5390625 9.4453125,5.46875 9.53125,5.46875 L10.4707031,5.46875 C10.5566406,5.46875 10.6269531,5.5390625 10.6269531,5.625 L10.6269531,10.4589844 L13.4121094,12.4726563 Z" id="fill" fill="#6F7479" fill-rule="nonzero"></path>
    </g>
</svg>