<?xml version="1.0" encoding="UTF-8"?>
<svg width="20px" height="20px" viewBox="0 0 20 20" version="1.1" xmlns="http://www.w3.org/2000/svg" xmlns:xlink="http://www.w3.org/1999/xlink">
    <!-- Generator: Sketch 52.5 (67469) - http://www.bohemiancoding.com/sketch -->
    <title>ICON/20/告警</title>
    <desc>Created with Sketch.</desc>
    <g id="ICON/20/告警" stroke="none" stroke-width="1" fill="none" fill-rule="evenodd">
        <path d="M10,2 C5.58214286,2 2,5.58214286 2,10 C2,14.4178571 5.58214286,18 10,18 C14.4178571,18 18,14.4178571 18,10 C18,5.58214286 14.4178571,2 10,2 Z M9,6 C9,5.33333333 9.33333333,5 10,5 C10.6666667,5 11,5.33333333 11,6 C10.7243948,9.33333333 10.3910615,11.3333333 10,12 C9.53125,11.3333333 9.19791667,9.33333333 9,6 Z M10,15 C9.44791667,15 9,14.5520833 9,14 C9,13.4479167 9.44791667,13 10,13 C10.5520833,13 11,13.4479167 11,14 C11,14.5520833 10.5520833,15 10,15 Z" id="fill" fill="#F22635" fill-rule="nonzero"></path>
    </g>
</svg>