<?xml version="1.0" encoding="UTF-8"?>
<svg width="30px" height="30px" viewBox="0 0 30 30" version="1.1" xmlns="http://www.w3.org/2000/svg" xmlns:xlink="http://www.w3.org/1999/xlink">
    <!-- Generator: Sketch 52.5 (67469) - http://www.bohemiancoding.com/sketch -->
    <title>ICON/30/word</title>
    <desc>Created with Sketch.</desc>
    <g id="ICON/30/word" stroke="none" stroke-width="1" fill="none" fill-rule="evenodd">
        <path d="M26.7879195,0.028424581 C28.5591946,0.028424581 30.0024161,1.46601117 29.9986577,3.23557542 L29.9986577,26.7628156 C29.9986577,28.5321117 28.5591946,29.9699665 26.7879195,29.9699665 L7.51543624,29.9699665 C5.74416107,29.9699665 4.30469799,28.5323799 4.30469799,26.7625475 L4.30469799,23.5553966 L2.1642953,23.5553966 C0.983087248,23.5553966 0.0236241611,22.5970056 0.0236241611,21.4176536 L0.0236241611,8.58100559 C0.0236241611,7.40111732 0.983087248,6.44272626 2.1642953,6.44272626 L4.30469799,6.44272626 L4.30469799,3.23557542 C4.30469799,1.46601117 5.74416107,0.028424581 7.51543624,0.028424581 L26.7879195,0.028424581 Z M27.8577181,26.7663017 L27.8579866,26.7663017 L27.8579866,3.24683799 C27.8575426,2.65665692 27.3787606,2.17828982 26.7879195,2.17769832 L7.51543624,2.17769832 C6.92459514,2.17828982 6.44581307,2.65665692 6.44536913,3.24683799 L6.44536913,6.45398883 L15.0110067,6.45398883 C16.1916779,6.45398883 17.1516779,7.41211173 17.1516779,8.592 L24.6469799,8.592 C25.2379258,8.59244366 25.7168713,9.070854 25.7173154,9.66113966 C25.7168713,10.2514253 25.2379258,10.7298357 24.6469799,10.7302793 L17.1516779,10.7302793 L17.1516779,12.8682905 L24.6469799,12.8682905 C25.2379258,12.8687342 25.7168713,13.3471445 25.7173154,13.9374302 C25.7168713,14.5277158 25.2379258,15.0061262 24.6469799,15.0065698 L17.1516779,15.0065698 L17.1516779,17.1448492 L24.6469799,17.1448492 C25.2378211,17.1452926 25.7167233,17.6235397 25.7173154,18.2137207 C25.7168713,18.8040063 25.2379258,19.2824167 24.6469799,19.2828603 L17.1514094,19.2828603 L17.1514094,21.4211397 C17.1514094,22.6007598 16.1919463,23.5591508 15.0110067,23.5591508 L6.44510067,23.5591508 L6.44510067,26.7663017 C6.44554462,27.3564827 6.92432669,27.8348498 7.51516779,27.8354413 L26.787651,27.8354413 C27.3784921,27.8348498 27.8572742,27.3564827 27.8577181,26.7663017 Z M10.2539063,16.8183594 L9.06445313,11.46875 L7.31835938,11.46875 L6.14648438,16.8183594 L5.16796875,11.46875 L3.12304688,11.46875 L4.93945313,20 L7.06640625,20 L8.18554688,15.1367187 L9.328125,20 L11.4609375,20 L13.2714844,11.46875 L11.2324219,11.46875 L10.2539063,16.8183594 Z" id="Shape" fill="#0072D2" fill-rule="nonzero"></path>
    </g>
</svg>