<?xml version="1.0" encoding="UTF-8"?>
<svg width="20px" height="20px" viewBox="0 0 20 20" version="1.1" xmlns="http://www.w3.org/2000/svg" xmlns:xlink="http://www.w3.org/1999/xlink">
    <!-- Generator: Sketch 52.5 (67469) - http://www.bohemiancoding.com/sketch -->
    <title>ICON/20/对号</title>
    <desc>Created with Sketch.</desc>
    <g id="ICON/20/对号" stroke="none" stroke-width="1" fill="none" fill-rule="evenodd">
        <path d="M10,1.25 C5.16796875,1.25 1.25,5.16796875 1.25,10 C1.25,14.8320312 5.16796875,18.75 10,18.75 C14.8320312,18.75 18.75,14.8320312 18.75,10 C18.75,5.16796875 14.8320312,1.25 10,1.25 Z M13.7792969,7.14257813 L9.66601562,12.8457031 C9.41796875,13.1914063 8.90429688,13.1914063 8.65625,12.8457031 L6.22070312,9.47070312 C6.14648437,9.3671875 6.22070312,9.22265625 6.34765625,9.22265625 L7.26367187,9.22265625 C7.46289062,9.22265625 7.65234375,9.31835938 7.76953125,9.48242188 L9.16015625,11.4121094 L12.2304688,7.15429688 C12.3476562,6.9921875 12.5351562,6.89453125 12.7363281,6.89453125 L13.6523438,6.89453125 C13.7792969,6.89453125 13.8535156,7.0390625 13.7792969,7.14257813 Z" id="fill" fill="#29C89B" fill-rule="nonzero"></path>
    </g>
</svg>