<?xml version="1.0" encoding="UTF-8"?>
<svg width="20px" height="20px" viewBox="0 0 20 20" version="1.1" xmlns="http://www.w3.org/2000/svg" xmlns:xlink="http://www.w3.org/1999/xlink">
    <!-- Generator: Sketch 52.5 (67469) - http://www.bohemiancoding.com/sketch -->
    <title>ICON/20/定位</title>
    <desc>Created with Sketch.</desc>
    <g id="ICON/20/定位" stroke="none" stroke-width="1" fill="none" fill-rule="evenodd">
        <path d="M16.6914062,5.64648438 C16.3242188,4.79882812 15.7988281,4.0390625 15.1308594,3.38671875 C14.4628906,2.734375 13.6875,2.22460938 12.8222656,1.8671875 C11.9277344,1.49609375 10.9785156,1.30859375 10,1.30859375 C9.02148438,1.30859375 8.07226562,1.49609375 7.17773438,1.86523438 C6.3125,2.22265625 5.53710938,2.734375 4.86914062,3.38476562 C4.20117188,4.03710938 3.67578125,4.79882812 3.30859375,5.64453125 C2.92773438,6.5234375 2.734375,7.45703125 2.734375,8.41796875 C2.734375,9.796875 3.06445312,11.1699219 3.71289062,12.4941406 C4.234375,13.5585937 4.96289062,14.5957031 5.88085938,15.5820312 C7.44921875,17.265625 9.09375,18.2949219 9.56054688,18.5703125 C9.6953125,18.6503906 9.84765625,18.6894531 9.99804688,18.6894531 C10.1503906,18.6894531 10.3007812,18.6503906 10.4355469,18.5703125 C10.9023437,18.2949219 12.546875,17.265625 14.1152344,15.5820312 C15.0332031,14.5976562 15.7617187,13.5585937 16.2832031,12.4941406 C16.9355469,11.171875 17.265625,9.80078125 17.265625,8.41992188 C17.265625,7.45898438 17.0722656,6.52539062 16.6914062,5.64648438 Z M10,17.1914062 C8.71289062,16.3730469 4.140625,13.1328125 4.140625,8.41992188 C4.140625,6.8984375 4.74804688,5.46875 5.8515625,4.390625 C6.95898438,3.31054688 8.43164062,2.71484375 10,2.71484375 C11.5683594,2.71484375 13.0410156,3.31054688 14.1484375,4.39257812 C15.2519531,5.46875 15.859375,6.8984375 15.859375,8.41992188 C15.859375,13.1328125 11.2871094,16.3730469 10,17.1914062 Z M10,5.13671875 C8.1015625,5.13671875 6.5625,6.67578125 6.5625,8.57421875 C6.5625,10.4726562 8.1015625,12.0117188 10,12.0117188 C11.8984375,12.0117188 13.4375,10.4726562 13.4375,8.57421875 C13.4375,6.67578125 11.8984375,5.13671875 10,5.13671875 Z M11.546875,10.1210938 C11.1328125,10.5332031 10.5839844,10.7617188 10,10.7617188 C9.41601562,10.7617188 8.8671875,10.5332031 8.453125,10.1210938 C8.04101562,9.70703125 7.8125,9.15820312 7.8125,8.57421875 C7.8125,7.99023438 8.04101562,7.44140625 8.453125,7.02734375 C8.8671875,6.61328125 9.41601562,6.38671875 10,6.38671875 C10.5839844,6.38671875 11.1328125,6.61328125 11.546875,7.02734375 C11.9609375,7.44140625 12.1875,7.99023438 12.1875,8.57421875 C12.1875,9.15820312 11.9609375,9.70703125 11.546875,10.1210938 Z" id="fill" fill="#FFFFFF" fill-rule="nonzero"></path>
    </g>
</svg>