<?xml version="1.0" encoding="UTF-8"?>
<svg width="20px" height="20px" viewBox="0 0 20 20" version="1.1" xmlns="http://www.w3.org/2000/svg" xmlns:xlink="http://www.w3.org/1999/xlink">
    <!-- Generator: Sketch 52.5 (67469) - http://www.bohemiancoding.com/sketch -->
    <title>ICON/20/手机</title>
    <desc>Created with Sketch.</desc>
    <g id="ICON/20/手机" stroke="none" stroke-width="1" fill="none" fill-rule="evenodd">
        <path d="M15.625,1.25 L4.375,1.25 C3.68554688,1.25 3.125,1.81054688 3.125,2.5 L3.125,17.5 C3.125,18.1894531 3.68554688,18.75 4.375,18.75 L15.625,18.75 C16.3144531,18.75 16.875,18.1894531 16.875,17.5 L16.875,2.5 C16.875,1.81054688 16.3144531,1.25 15.625,1.25 Z M15.46875,17.34375 L4.53125,17.34375 L4.53125,2.65625 L15.46875,2.65625 L15.46875,17.34375 Z M9.21875,15.3125 C9.21875,15.7439725 9.56852754,16.09375 10,16.09375 C10.4314725,16.09375 10.78125,15.7439725 10.78125,15.3125 C10.78125,14.8810275 10.4314725,14.53125 10,14.53125 C9.56852754,14.53125 9.21875,14.8810275 9.21875,15.3125 Z" id="fill" fill="#FFFFFF" fill-rule="nonzero"></path>
    </g>
</svg>