<?xml version="1.0" encoding="UTF-8"?>
<svg width="20px" height="20px" viewBox="0 0 20 20" version="1.1" xmlns="http://www.w3.org/2000/svg" xmlns:xlink="http://www.w3.org/1999/xlink">
    <!-- Generator: Sketch 52.2 (67145) - http://www.bohemiancoding.com/sketch -->
    <title>ICON/20/座机</title>
    <desc>Created with Sketch.</desc>
    <g id="ICON/20/座机" stroke="none" stroke-width="1" fill="none" fill-rule="evenodd">
        <path d="M7.27291388,5.21310296 C7.08687467,4.25727687 6.81487467,3.34511634 6.53377663,2.7241665 C6.4214629,2.47469493 6.28499231,2.35878858 6.12969819,2.31030697 C6.06896649,2.29224453 6.00595699,2.28348067 5.9427178,2.28430028 C5.76922761,2.28430028 5.56091388,2.33888222 5.28860016,2.46827353 C5.15214727,2.53209797 5.02053982,2.60625717 4.89487467,2.69013306 C4.64985506,2.85066818 4.41110996,3.04587888 4.19369819,3.27704945 C3.6029531,3.90570496 3.25754133,4.69714309 3.2559727,5.70530363 C3.24593349,6.26075513 3.32185506,7.05572503 3.54773741,8.02022001 C3.89377663,9.49393239 4.52028643,11.019016 5.49377663,12.5383203 C6.77283545,14.5353772 8.10460016,15.8803404 9.84263937,16.9331297 C10.2576982,17.1954441 10.6746394,17.3922601 11.079659,17.5181197 C11.4576982,17.6362735 11.8326002,17.6956715 12.1943256,17.6956715 C12.7390628,17.6963312 13.2753755,17.5580657 13.7547962,17.2933705 C14.0471884,17.1334775 14.2617766,16.9649157 14.39511,16.8310294 C14.7182472,16.5215177 14.8537766,16.2752568 14.8587962,16.0806882 C14.8625609,15.915016 14.756208,15.6989357 14.5384825,15.4379056 C14.4613003,15.3466733 14.3811507,15.2581152 14.2981688,15.1723805 C14.1717374,15.0391364 14.0315021,14.9039658 13.8802864,14.7678321 C13.6142573,14.5298503 13.3372335,14.3050572 13.0501688,14.0942267 C12.9175932,13.9964462 12.7829737,13.9016015 12.6464041,13.8097585 C12.5102472,13.7176113 12.397306,13.6553237 12.3709531,13.6469759 C12.3280456,13.6335566 12.2834272,13.6267396 12.2385609,13.6267484 C12.0330707,13.6267484 11.7626394,13.7686615 11.4144041,14.1083538 C11.2346394,14.2839792 11.040757,14.5122601 10.8609923,14.74921 C10.68876,14.9738498 10.4315748,15.1132697 10.1532276,15.1328889 L10.0895413,15.1354575 C9.84353346,15.1350729 9.60662787,15.0402004 9.42569819,14.8696113 C8.47354133,13.967404 7.572208,12.8593906 6.81518839,11.6601933 C6.04436486,10.4401264 5.42067859,9.12373841 5.0109531,7.85069493 C4.85094649,7.35254567 5.09261164,6.81229629 5.56561976,6.61072169 C5.88631607,6.47462888 6.20673506,6.33785267 6.52687467,6.20039393 L6.70005114,6.12654777 C7.30554133,5.81510965 7.37361976,5.72264142 7.27291388,5.21310296 Z M13.4705609,12.8282468 C13.5668747,12.8950294 13.6719727,12.9698387 13.7842864,13.0526749 C14.1041457,13.2875891 14.4127892,13.5380987 14.7091492,13.8033371 C14.8838943,13.9606615 15.047659,14.1189491 15.1991884,14.278521 C15.3340904,14.4217183 15.4040511,14.497812 15.4925217,14.6037652 C15.8918943,15.0821598 16.125306,15.5573438 16.1136982,16.1121531 C16.0980119,16.7022802 15.7993453,17.2455311 15.2635021,17.7576381 C15.0611492,17.9615177 14.7530707,18.2036046 14.3458551,18.4261063 C13.6846941,18.7905689 12.9452971,18.9809043 12.1943256,18.9799525 C11.7061688,18.9799525 11.2079727,18.9009692 10.7144825,18.7468555 C10.20311,18.5879257 9.68765898,18.3445545 9.19291388,18.0318321 C7.29393349,16.8817585 5.82507074,15.3977719 4.44436486,13.2424274 C3.38930604,11.5959792 2.70632565,9.93347754 2.3279727,8.32009961 C2.07542368,7.24451433 1.98914918,6.34166483 2.00107074,5.69213975 C2.00326682,4.34557119 2.484208,3.24333707 3.28922761,2.38672169 C3.56804057,2.09062941 3.88005944,1.82928622 4.21879623,1.60812637 C4.39521671,1.49082823 4.57999808,1.38725922 4.77158055,1.29829359 C5.1869531,1.1008354 5.57032565,1.00001935 5.9427178,1.00001935 C6.13015171,0.999161112 6.31666635,1.02686269 6.49612957,1.08221333 C6.98240408,1.23311634 7.40656094,1.59303607 7.67322761,2.18541065 C7.99918839,2.90589226 8.29942368,3.91308958 8.50334525,4.96042068 C8.74460016,6.18177185 8.31385506,6.73561801 7.2547178,7.27918991 L7.19354133,7.30744409 L7.01063937,7.38546416 C6.76878195,7.48890987 6.52689959,7.59229448 6.28499231,7.69561801 C6.660208,8.78693573 7.2054629,9.91260797 7.86899231,10.9631498 C8.51275702,11.9828688 9.26883545,12.9309892 10.0619335,13.7172902 C10.2140247,13.5286163 10.376373,13.3488537 10.548208,13.1788555 C11.1091492,12.6317518 11.661306,12.3424675 12.2385609,12.3424675 C12.4079727,12.3424675 12.5761296,12.3681531 12.7383256,12.4192033 C12.9067962,12.4718588 13.1100904,12.5839123 13.3350315,12.7360996 C13.3673453,12.7576113 13.4115805,12.7874709 13.4705609,12.8282468 Z M12.9990315,2.5861063 C16.3671884,3.29791901 18.5425609,6.68809961 17.8489139,10.1424943 C17.8160161,10.307713 17.7200207,10.45265 17.5822472,10.5451163 C17.445002,10.6383451 17.2769824,10.6714174 17.1157374,10.6369424 C16.9544952,10.6031946 16.8131605,10.5048 16.7232668,10.3637117 C16.632135,10.2229054 16.6000364,10.0505581 16.6341688,9.885317 C16.9027178,8.54709627 16.6467178,7.17965814 15.9119727,6.03472169 C15.1766002,4.89042737 14.0534629,4.10797921 12.7480511,3.83153774 C12.5867775,3.79807068 12.4453814,3.69974896 12.3555805,3.55862804 C12.2645483,3.41778032 12.2324576,3.24547553 12.2664825,3.08023339 C12.298952,2.91491236 12.3945817,2.76970447 12.5321301,2.67686348 C12.6696786,2.5840225 12.837757,2.55123552 12.9990315,2.58578523 L12.9990315,2.5861063 Z M11.4624041,7.8002869 C11.3010387,7.76664071 11.159508,7.66838252 11.069306,7.52737721 C10.9780059,7.38652319 10.9456872,7.214092 10.9795805,7.04866149 C11.0121969,6.88329036 11.1079532,6.73807946 11.2456016,6.64525052 C11.38325,6.55242159 11.5514062,6.51965204 11.712757,6.55421333 C13.1521296,6.85858791 14.0816982,8.30789894 13.7855413,9.78482202 C13.752836,9.94994607 13.6572031,10.0949339 13.5197911,10.1877226 C13.382379,10.2805112 13.2145097,10.3134556 13.053306,10.2792702 C12.8915157,10.2458416 12.7497052,10.1471204 12.6598943,10.0053973 C12.5691143,9.86480507 12.5370337,9.6929011 12.5707962,9.52796583 C12.6481297,9.14800833 12.5738022,8.75217908 12.3643649,8.42862135 C12.1577822,8.10429339 11.832993,7.87803493 11.4624041,7.8002869 Z M12.10711,5.8080461 C11.7716921,5.73616253 11.5561471,5.40032431 11.6249139,5.05674175 C11.6574609,4.89146378 11.7531072,4.74631065 11.890634,4.65348429 C12.0281607,4.56065794 12.1961965,4.52783371 12.3574629,4.56229359 C13.5174918,4.80519562 14.5342744,5.51314151 15.1809923,6.52820664 C15.8346157,7.54005142 16.0663639,8.77712305 15.824757,9.96462135 C15.7922,10.1300712 15.6961331,10.2752318 15.5580904,10.3675645 C15.4210464,10.4610051 15.2529936,10.4939905 15.0918943,10.4590695 C14.7566476,10.3871893 14.5412414,10.0514923 14.6100119,9.70808624 C14.7843828,8.85060602 14.6168918,7.95736702 14.144757,7.22685547 C13.6782144,6.4940691 12.9443816,5.98298718 12.10711,5.80772503 L12.10711,5.8080461 Z" id="Shape" fill="#FFFFFF" fill-rule="nonzero"></path>
    </g>
</svg>