<?xml version="1.0" encoding="UTF-8"?>
<svg width="20px" height="20px" viewBox="0 0 20 20" version="1.1" xmlns="http://www.w3.org/2000/svg" xmlns:xlink="http://www.w3.org/1999/xlink">
    <!-- Generator: Sketch 52.5 (67469) - http://www.bohemiancoding.com/sketch -->
    <title>ICON/20/鼠标</title>
    <desc>Created with Sketch.</desc>
    <g id="ICON/20/鼠标" stroke="none" stroke-width="1" fill="none" fill-rule="evenodd">
        <path d="M10,0 C13.8659932,-7.10171439e-16 17,3.13400675 17,7 L17,15 C17,17.7614237 14.7614237,20 12,20 L8,20 C5.23857625,20 3,17.7614237 3,15 L3,7 C3,3.13400675 6.13400675,7.10171439e-16 10,0 Z M10,1 C6.6862915,1 4,3.6862915 4,7 L4,15 C4,17.209139 5.790861,19 8,19 L12,19 C14.209139,19 16,17.209139 16,15 L16,7 C16,3.6862915 13.3137085,1 10,1 Z M10,4 C10.5522847,4 11,4.44771525 11,5 L11,8 C11,8.55228475 10.5522847,9 10,9 C9.44771525,9 9,8.55228475 9,8 L9,5 C9,4.44771525 9.44771525,4 10,4 Z" id="Rectangle" fill="#FFFFFF" fill-rule="nonzero"></path>
    </g>
</svg>