<?xml version="1.0" encoding="UTF-8"?>
<svg width="20px" height="20px" viewBox="0 0 20 20" version="1.1" xmlns="http://www.w3.org/2000/svg" xmlns:xlink="http://www.w3.org/1999/xlink">
    <!-- Generator: Sketch 52.5 (67469) - http://www.bohemiancoding.com/sketch -->
    <title>ICON/20/二维码</title>
    <desc>Created with Sketch.</desc>
    <g id="ICON/20/二维码" stroke="none" stroke-width="1" fill-rule="evenodd">
        <path d="M1.96376812,10.6980676 L1.96376812,9.24154589 L0.507246377,9.24154589 L0.507246377,10.6980676 L1.96376812,10.6980676 Z M2.4468599,17.5603865 L5.37681159,17.5603865 L5.37681159,14.5990338 L2.4468599,14.5990338 L2.4468599,17.5603865 Z M10.7342995,4.39130435 L9.26811594,4.39130435 L9.26811594,5.84299517 L10.7342995,5.84299517 L10.7342995,4.39130435 Z M5.37922705,2.43236715 L2.4468599,2.43236715 L2.4468599,5.39371981 L5.37681159,5.39371981 L5.37681159,2.43236715 L5.37922705,2.43236715 Z M14.1328502,12.6594203 L12.678744,12.6594203 L12.678744,14.1111111 L17.0507246,14.1111111 L17.0507246,12.6594203 L15.6014493,12.6594203 L15.6014493,11.1884058 L14.1352657,11.1884058 L14.1352657,12.6594203 L14.1328502,12.6594203 Z M10.7342995,0.47826087 L9.26811594,0.47826087 L9.26811594,3.4057971 L10.7342995,3.4057971 L10.7342995,0.47826087 Z M10.7270531,11.6835749 L12.1932367,11.6835749 L12.1932367,10.2391304 L13.6521739,10.2391304 L13.6521739,8.75603865 L12.1859903,8.75603865 L12.1859903,10.2149758 L10.7270531,10.2149758 L10.7270531,11.6835749 Z M15.6014493,16.5507246 L15.6014493,15.0966184 L14.1352657,15.0966184 L14.1352657,16.5483092 L15.6014493,16.5483092 L15.6014493,16.5507246 Z M17.0603865,9.7294686 L15.5942029,9.7294686 L15.5942029,11.1811594 L17.0603865,11.1811594 L17.0603865,9.7294686 Z M7.80434783,0.00483091787 L0.0169082126,0.00483091787 L0.0169082126,7.77777778 L7.80434783,7.77777778 L7.80434783,0.00483091787 Z M6.84057971,6.8115942 L0.997584541,6.8115942 L0.997584541,0.985507246 L6.84057971,0.985507246 L6.84057971,6.8115942 Z M18.02657,10.6956522 L19.4927536,10.6956522 L19.4927536,9.27294686 L18.02657,9.27294686 L18.02657,10.6956522 Z M18.02657,18.0024155 L17.0603865,18.0024155 L17.0603865,16.557971 L15.5942029,16.557971 L15.5942029,18.0024155 L14.1328502,18.0024155 L14.1328502,19.4855072 L19.4927536,19.4855072 L19.4927536,18.0555556 L19.4951691,18.0555556 L19.4951691,15.0821256 L18.0289855,15.0821256 L18.0289855,18.0024155 L18.02657,18.0024155 Z M18.02657,14.1014493 L19.4927536,14.1014493 L19.4927536,12.6497585 L18.02657,12.6497585 L18.02657,14.1014493 Z M17.5458937,2.43236715 L14.6135266,2.43236715 L14.6135266,5.39371981 L17.5434783,5.39371981 L17.5434783,2.43236715 L17.5458937,2.43236715 Z M12.1908213,0.00483091787 L12.1908213,7.77777778 L19.9782609,7.77777778 L19.9782609,0.00483091787 L12.1908213,0.00483091787 Z M19,6.8115942 L13.1570048,6.8115942 L13.1570048,0.985507246 L19,0.985507246 L19,6.8115942 Z M10.7342995,15.0748792 L12.1932367,15.0748792 L12.1932367,13.6521739 L10.7342995,13.6521739 L10.7342995,11.6859903 L9.26811594,11.6859903 L9.26811594,19.4492754 L10.7270531,19.4492754 L10.7270531,19.468599 L12.1932367,19.468599 L12.1932367,18.0169082 L10.7342995,18.0169082 L10.7342995,15.0748792 Z M3.42753623,10.7149758 L8.29951691,10.7149758 L8.29951691,9.24154589 L3.42753623,9.24154589 L3.42753623,10.7149758 Z M10.7342995,6.81884058 L9.26086957,6.81884058 L9.26086957,8.2705314 L10.7342995,8.2705314 L10.7342995,6.81884058 Z M12.1859903,17.9951691 L13.6521739,17.9951691 L13.6521739,16.5434783 L12.1859903,16.5434783 L12.1859903,17.9951691 Z M0.0144927536,19.9541063 L7.80193237,19.9541063 L7.80193237,12.1811594 L0.0144927536,12.1811594 L0.0144927536,19.9541063 Z M0.997584541,13.1618357 L6.84057971,13.1618357 L6.84057971,18.9879227 L0.997584541,18.9879227 L0.997584541,13.1618357 Z" id="Shape" fill="#212121" fill-rule="nonzero"></path>
    </g>
</svg>